<svg width="665" height="603" viewBox="0 0 665 603" fill="none" xmlns="http://www.w3.org/2000/svg">
<g clip-path="url(#clip0_20_5275)">
<path fill-rule="evenodd" clip-rule="evenodd" d="M471.792 -365.27C581.522 -360.059 696.947 -319.304 763.945 -234.452C796.146 -193.671 800.361 -143.987 799.47 -91.984C798.647 -43.9443 793.467 6.07495 801.963 52.8844C816.189 131.255 869.283 200.772 857.236 279.489C843.889 366.696 801.338 449.918 732.451 507.079C660.304 566.945 564.746 617.248 471.792 599.322C381.698 581.948 353.633 468.006 276.659 419.183C192.439 365.763 45.6064 395.04 7.1096 304.58C-30.6029 215.963 92.8171 138.12 117.527 45.2552C129.112 1.71718 125.603 -45.6555 123.023 -91.984C119.507 -155.116 117.715 -216.309 158.195 -263.217C230.908 -347.478 358.955 -370.628 471.792 -365.27Z" fill="#FFC637"/>
</g>
<defs>
<clipPath id="clip0_20_5275">
<rect width="665" height="603" fill="white"/>
</clipPath>
</defs>
</svg>
