<svg width="40" height="40" viewBox="0 0 40 40" fill="none" xmlns="http://www.w3.org/2000/svg">
<path fill-rule="evenodd" clip-rule="evenodd" d="M20 39.1667C16.9992 39.1667 14.2096 38.2825 11.8884 36.7661L11.8985 36.761C8.2488 34.452 5.83333 30.4356 5.83333 25.8673L5.83337 25.8333H5.83333V14.1667H5.83415C5.8336 14.1181 5.83333 14.0695 5.83333 14.0209C5.83333 8.34088 9.5675 3.51406 14.7654 1.76142C16.3934 1.16154 18.1575 0.83334 20 0.83334C25.1639 0.83334 29.7122 3.41127 32.3735 7.32329C33.5007 8.82319 34.1667 10.6754 34.1667 12.6798C34.1667 15.5882 32.7646 18.1762 30.5856 19.8324C32.7646 21.4885 34.1667 24.0766 34.1667 26.9849C34.1667 27.8577 34.0404 28.7015 33.8048 29.5001C33.8164 29.4997 33.8275 29.4995 33.8379 29.4995C31.8685 35.1236 26.4169 39.1667 20 39.1667ZM14 27.5C14 29.9853 16.0147 32 18.5 32H22.5C24.9853 32 27 29.9853 27 27.5C27 25.0147 24.9853 23 22.5 23H18.5C16.0147 23 14 25.0147 14 27.5ZM18.5 17C16.0147 17 14 14.9853 14 12.5C14 10.0147 16.0147 8 18.5 8H22.5C24.9853 8 27 10.0147 27 12.5C27 14.9853 24.9853 17 22.5 17H18.5Z" fill="#FFC637"/>
</svg>
