<svg width="1005" height="191" viewBox="0 0 1005 191" fill="none" xmlns="http://www.w3.org/2000/svg">
<g opacity="0.05">
<mask id="path-1-outside-1_15_70" maskUnits="userSpaceOnUse" x="-4" y="-4" width="1013" height="199" fill="black">
<rect fill="white" x="-4" y="-4" width="1013" height="199"/>
<path d="M0.423295 188V10.5454H70.4347C83.8939 10.5454 95.3603 13.116 104.834 18.2571C114.307 23.3404 121.528 30.4167 126.496 39.4858C131.521 48.4972 134.034 58.8949 134.034 70.679C134.034 82.4631 131.492 92.8608 126.409 101.872C121.326 110.884 113.961 117.902 104.314 122.928C94.7249 127.953 83.1141 130.466 69.4815 130.466H24.858V100.399H63.4162C70.6368 100.399 76.5867 99.1572 81.2656 96.6733C86.0024 94.1316 89.526 90.6368 91.8367 86.1889C94.205 81.6832 95.3892 76.5133 95.3892 70.679C95.3892 64.7869 94.205 59.6458 91.8367 55.2557C89.526 50.8078 86.0024 47.3707 81.2656 44.9446C76.5289 42.4607 70.5213 41.2188 63.2429 41.2188H37.9418V188H0.423295ZM215.7 190.599C202.24 190.599 190.601 187.74 180.781 182.021C171.018 176.245 163.48 168.215 158.165 157.933C152.851 147.593 150.194 135.607 150.194 121.974C150.194 108.226 152.851 96.2112 158.165 85.929C163.48 75.589 171.018 67.5597 180.781 61.8409C190.601 56.0644 202.24 53.1761 215.7 53.1761C229.159 53.1761 240.77 56.0644 250.532 61.8409C260.352 67.5597 267.919 75.589 273.234 85.929C278.548 96.2112 281.205 108.226 281.205 121.974C281.205 135.607 278.548 147.593 273.234 157.933C267.919 168.215 260.352 176.245 250.532 182.021C240.77 187.74 229.159 190.599 215.7 190.599ZM215.873 162.006C221.996 162.006 227.108 160.273 231.21 156.807C235.311 153.283 238.401 148.489 240.481 142.423C242.618 136.358 243.687 129.455 243.687 121.714C243.687 113.974 242.618 107.071 240.481 101.006C238.401 94.9403 235.311 90.1458 231.21 86.6222C227.108 83.0985 221.996 81.3366 215.873 81.3366C209.692 81.3366 204.493 83.0985 200.276 86.6222C196.117 90.1458 192.969 94.9403 190.832 101.006C188.752 107.071 187.712 113.974 187.712 121.714C187.712 129.455 188.752 136.358 190.832 142.423C192.969 148.489 196.117 153.283 200.276 156.807C204.493 160.273 209.692 162.006 215.873 162.006ZM305.207 188V54.9091H340.992V78.1307H342.379C344.805 69.8703 348.877 63.6316 354.596 59.4148C360.315 55.1401 366.9 53.0028 374.352 53.0028C376.2 53.0028 378.193 53.1184 380.33 53.3494C382.468 53.5805 384.345 53.8982 385.962 54.3025V87.0554C384.229 86.5355 381.832 86.0734 378.771 85.669C375.709 85.2647 372.907 85.0625 370.366 85.0625C364.936 85.0625 360.084 86.2467 355.809 88.6151C351.592 90.9257 348.242 94.1605 345.758 98.3196C343.332 102.479 342.119 107.273 342.119 112.703V188H305.207ZM482.51 54.9091V82.6364H402.36V54.9091H482.51ZM420.556 23.0227H457.468V147.102C457.468 150.51 457.988 153.168 459.028 155.074C460.068 156.922 461.512 158.222 463.36 158.973C465.267 159.724 467.462 160.099 469.946 160.099C471.679 160.099 473.412 159.955 475.145 159.666C476.877 159.32 478.206 159.06 479.13 158.886L484.936 186.354C483.087 186.931 480.488 187.596 477.137 188.347C473.787 189.155 469.715 189.646 464.92 189.82C456.024 190.166 448.226 188.982 441.525 186.267C434.882 183.552 429.712 179.335 426.015 173.616C422.318 167.898 420.499 160.677 420.556 151.955V23.0227ZM578.125 54.9091V82.6364H495.983V54.9091H578.125ZM514.786 188V45.2912C514.786 35.6444 516.663 27.6439 520.418 21.2898C524.23 14.9356 529.429 10.17 536.015 6.99289C542.6 3.8158 550.08 2.22726 558.456 2.22726C564.117 2.22726 569.287 2.6605 573.966 3.52699C578.703 4.39346 582.227 5.17329 584.537 5.86647L577.952 33.5938C576.508 33.1316 574.717 32.6984 572.58 32.294C570.5 31.8897 568.363 31.6875 566.168 31.6875C560.738 31.6875 556.954 32.9583 554.817 35.5C552.68 37.9839 551.611 41.4787 551.611 45.9844V188H514.786ZM656.043 190.599C642.584 190.599 630.944 187.74 621.124 182.021C611.362 176.245 603.824 168.215 598.509 157.933C593.195 147.593 590.538 135.607 590.538 121.974C590.538 108.226 593.195 96.2112 598.509 85.929C603.824 75.589 611.362 67.5597 621.124 61.8409C630.944 56.0644 642.584 53.1761 656.043 53.1761C669.503 53.1761 681.113 56.0644 690.876 61.8409C700.696 67.5597 708.263 75.589 713.577 85.929C718.892 96.2112 721.549 108.226 721.549 121.974C721.549 135.607 718.892 147.593 713.577 157.933C708.263 168.215 700.696 176.245 690.876 182.021C681.113 187.74 669.503 190.599 656.043 190.599ZM656.217 162.006C662.34 162.006 667.452 160.273 671.553 156.807C675.655 153.283 678.745 148.489 680.825 142.423C682.962 136.358 684.031 129.455 684.031 121.714C684.031 113.974 682.962 107.071 680.825 101.006C678.745 94.9403 675.655 90.1458 671.553 86.6222C667.452 83.0985 662.34 81.3366 656.217 81.3366C650.036 81.3366 644.837 83.0985 640.62 86.6222C636.461 90.1458 633.313 94.9403 631.175 101.006C629.096 107.071 628.056 113.974 628.056 121.714C628.056 129.455 629.096 136.358 631.175 142.423C633.313 148.489 636.461 153.283 640.62 156.807C644.837 160.273 650.036 162.006 656.217 162.006ZM782.462 10.5454V188H745.55V10.5454H782.462ZM812.031 188V54.9091H848.943V188H812.031ZM830.574 37.7528C825.086 37.7528 820.378 35.9332 816.45 32.294C812.58 28.5971 810.645 24.178 810.645 19.0369C810.645 13.9536 812.58 9.59232 816.45 5.95312C820.378 2.25615 825.086 0.407661 830.574 0.407661C836.061 0.407661 840.74 2.25615 844.61 5.95312C848.538 9.59232 850.502 13.9536 850.502 19.0369C850.502 24.178 848.538 28.5971 844.61 32.294C840.74 35.9332 836.061 37.7528 830.574 37.7528ZM938.645 190.599C925.186 190.599 913.546 187.74 903.726 182.021C893.964 176.245 886.425 168.215 881.111 157.933C875.796 147.593 873.139 135.607 873.139 121.974C873.139 108.226 875.796 96.2112 881.111 85.929C886.425 75.589 893.964 67.5597 903.726 61.8409C913.546 56.0644 925.186 53.1761 938.645 53.1761C952.104 53.1761 963.715 56.0644 973.477 61.8409C983.297 67.5597 990.865 75.589 996.179 85.929C1001.49 96.2112 1004.15 108.226 1004.15 121.974C1004.15 135.607 1001.49 147.593 996.179 157.933C990.865 168.215 983.297 176.245 973.477 182.021C963.715 187.74 952.104 190.599 938.645 190.599ZM938.818 162.006C944.941 162.006 950.054 160.273 954.155 156.807C958.256 153.283 961.347 148.489 963.426 142.423C965.563 136.358 966.632 129.455 966.632 121.714C966.632 113.974 965.563 107.071 963.426 101.006C961.347 94.9403 958.256 90.1458 954.155 86.6222C950.054 83.0985 944.941 81.3366 938.818 81.3366C932.637 81.3366 927.438 83.0985 923.222 86.6222C919.063 90.1458 915.914 94.9403 913.777 101.006C911.697 107.071 910.658 113.974 910.658 121.714C910.658 129.455 911.697 136.358 913.777 142.423C915.914 148.489 919.063 153.283 923.222 156.807C927.438 160.273 932.637 162.006 938.818 162.006Z"/>
</mask>
<path d="M0.423295 188H-3.5767V192H0.423295V188ZM0.423295 10.5454V6.54545H-3.5767V10.5454H0.423295ZM104.834 18.2571L102.926 21.7728L102.934 21.7773L102.943 21.7817L104.834 18.2571ZM126.496 39.4858L122.988 41.4075L122.995 41.4208L123.002 41.4341L126.496 39.4858ZM104.314 122.928L102.466 119.38L102.457 119.385L104.314 122.928ZM24.858 130.466H20.858V134.466H24.858V130.466ZM24.858 100.399V96.3991H20.858V100.399H24.858ZM81.2656 96.6733L83.1412 100.206L83.149 100.202L83.1569 100.198L81.2656 96.6733ZM91.8367 86.1889L88.296 84.3278L88.2915 84.3364L88.287 84.345L91.8367 86.1889ZM91.8367 55.2557L88.287 57.0996L88.3014 57.1273L88.3163 57.1548L91.8367 55.2557ZM81.2656 44.9446L79.408 48.4871L79.425 48.496L79.4421 48.5048L81.2656 44.9446ZM37.9418 41.2188V37.2188H33.9418V41.2188H37.9418ZM37.9418 188V192H41.9418V188H37.9418ZM4.4233 188V10.5454H-3.5767V188H4.4233ZM0.423295 14.5454H70.4347V6.54545H0.423295V14.5454ZM70.4347 14.5454C83.3905 14.5454 94.1663 17.0191 102.926 21.7728L106.742 14.7414C96.5543 9.2129 84.3974 6.54545 70.4347 6.54545V14.5454ZM102.943 21.7817C111.762 26.514 118.407 33.0459 122.988 41.4075L130.004 37.5641C124.649 27.7874 116.853 20.1669 106.725 14.7325L102.943 21.7817ZM123.002 41.4341C127.651 49.7696 130.034 59.4787 130.034 70.679H138.034C138.034 58.3111 135.392 47.2247 129.989 37.5375L123.002 41.4341ZM130.034 70.679C130.034 81.8716 127.625 91.5745 122.925 99.9069L129.893 103.837C135.359 94.1471 138.034 83.0545 138.034 70.679H130.034ZM122.925 99.9069C118.242 108.208 111.463 114.693 102.466 119.38L106.162 126.475C116.459 121.111 124.409 113.559 129.893 103.837L122.925 99.9069ZM102.457 119.385C93.5704 124.042 82.6313 126.466 69.4815 126.466V134.466C83.5969 134.466 95.8794 131.864 106.171 126.47L102.457 119.385ZM69.4815 126.466H24.858V134.466H69.4815V126.466ZM28.858 130.466V100.399H20.858V130.466H28.858ZM24.858 104.399H63.4162V96.3991H24.858V104.399ZM63.4162 104.399C71.0646 104.399 77.7133 103.088 83.1412 100.206L79.3901 93.1403C75.46 95.2266 70.2091 96.3991 63.4162 96.3991V104.399ZM83.1569 100.198C88.5489 97.3047 92.6773 93.2477 95.3863 88.0329L88.287 84.345C86.3748 88.026 83.4559 90.9586 79.3744 93.1487L83.1569 100.198ZM95.3773 88.05C98.0889 82.8914 99.3892 77.0662 99.3892 70.679H91.3892C91.3892 75.9603 90.3212 80.475 88.296 84.3278L95.3773 88.05ZM99.3892 70.679C99.3892 64.2441 98.0927 58.4275 95.357 53.3565L88.3163 57.1548C90.3173 60.8641 91.3892 65.3298 91.3892 70.679H99.3892ZM95.3863 53.4117C92.6682 48.1795 88.5172 44.1646 83.0891 41.3844L79.4421 48.5048C83.4876 50.5768 86.3839 53.436 88.287 57.0996L95.3863 53.4117ZM83.1233 41.4021C77.6444 38.5291 70.946 37.2188 63.2429 37.2188V45.2188C70.0966 45.2188 75.4133 46.3923 79.408 48.4871L83.1233 41.4021ZM63.2429 37.2188H37.9418V45.2188H63.2429V37.2188ZM33.9418 41.2188V188H41.9418V41.2188H33.9418ZM37.9418 184H0.423295V192H37.9418V184ZM180.781 182.021L178.744 185.464L178.756 185.471L178.768 185.478L180.781 182.021ZM158.165 157.933L154.608 159.762L154.612 159.77L158.165 157.933ZM158.165 85.929L161.719 87.7656L161.723 87.7575L158.165 85.929ZM180.781 61.8409L182.802 65.2923L182.809 65.2886L180.781 61.8409ZM250.532 61.8409L248.495 65.2834L248.507 65.2905L248.519 65.2975L250.532 61.8409ZM273.234 85.929L269.676 87.7575L269.68 87.7656L273.234 85.929ZM273.234 157.933L276.787 159.77L276.791 159.762L273.234 157.933ZM250.532 182.021L252.554 185.473L252.56 185.469L250.532 182.021ZM231.21 156.807L233.791 159.862L233.804 159.851L233.816 159.841L231.21 156.807ZM240.481 142.423L236.708 141.094L236.703 141.11L236.697 141.126L240.481 142.423ZM240.481 101.006L236.697 102.303L236.703 102.319L236.708 102.335L240.481 101.006ZM200.276 86.6222L197.711 83.5527L197.701 83.5614L197.691 83.5702L200.276 86.6222ZM190.832 101.006L187.059 99.6763L187.053 99.6923L187.048 99.7084L190.832 101.006ZM190.832 142.423L187.048 143.721L187.053 143.737L187.059 143.753L190.832 142.423ZM200.276 156.807L197.691 159.859L197.713 159.878L197.736 159.897L200.276 156.807ZM215.7 186.599C202.816 186.599 191.898 183.867 182.793 178.565L178.768 185.478C189.303 191.613 201.664 194.599 215.7 194.599V186.599ZM182.818 178.579C173.715 173.193 166.696 165.726 161.719 156.097L154.612 159.77C160.264 170.705 168.321 179.297 178.744 185.464L182.818 178.579ZM161.723 156.105C156.746 146.421 154.194 135.081 154.194 121.974H146.194C146.194 136.133 148.956 148.766 154.608 159.762L161.723 156.105ZM154.194 121.974C154.194 108.746 156.748 97.3827 161.719 87.7656L154.612 84.0924C148.954 95.0397 146.194 107.707 146.194 121.974H154.194ZM161.723 87.7575C166.7 78.0737 173.715 70.6159 182.802 65.2923L178.759 58.3895C168.322 64.5034 160.26 73.1043 154.608 84.1005L161.723 87.7575ZM182.809 65.2886C191.911 59.9345 202.823 57.1761 215.7 57.1761V49.1761C201.657 49.1761 189.291 52.1943 178.752 58.3932L182.809 65.2886ZM215.7 57.1761C228.577 57.1761 239.456 59.9348 248.495 65.2834L252.569 58.3984C242.083 52.194 229.741 49.1761 215.7 49.1761V57.1761ZM248.519 65.2975C257.663 70.6228 264.702 78.0799 269.676 87.7575L276.791 84.1005C271.136 73.0981 263.041 64.4965 252.545 58.3843L248.519 65.2975ZM269.68 87.7656C274.651 97.3827 277.205 108.746 277.205 121.974H285.205C285.205 107.707 282.445 95.0397 276.787 84.0924L269.68 87.7656ZM277.205 121.974C277.205 135.081 274.653 146.421 269.676 156.105L276.791 159.762C282.443 148.766 285.205 136.133 285.205 121.974H277.205ZM269.68 156.097C264.706 165.72 257.663 173.186 248.504 178.574L252.56 185.469C263.041 179.304 271.132 170.711 276.787 159.77L269.68 156.097ZM248.51 178.57C239.468 183.867 228.584 186.599 215.7 186.599V194.599C229.734 194.599 242.071 191.613 252.554 185.473L248.51 178.57ZM215.873 166.006C222.801 166.006 228.867 164.023 233.791 159.862L228.628 153.752C225.349 156.522 221.191 158.006 215.873 158.006V166.006ZM233.816 159.841C238.55 155.774 241.997 150.333 244.265 143.721L236.697 141.126C234.805 146.644 232.072 150.793 228.603 153.773L233.816 159.841ZM244.253 143.753C246.568 137.183 247.687 129.818 247.687 121.714H239.687C239.687 129.092 238.668 135.533 236.708 141.094L244.253 143.753ZM247.687 121.714C247.687 113.611 246.568 106.246 244.253 99.6763L236.708 102.335C238.668 107.896 239.687 114.337 239.687 121.714H247.687ZM244.265 99.7084C241.997 93.0956 238.55 87.6553 233.816 83.5881L228.603 89.6562C232.072 92.6363 234.805 96.7851 236.697 102.303L244.265 99.7084ZM233.816 83.5881C228.893 79.3586 222.818 77.3366 215.873 77.3366V85.3366C221.174 85.3366 225.323 86.8384 228.603 89.6562L233.816 83.5881ZM215.873 77.3366C208.879 77.3366 202.738 79.3526 197.711 83.5527L202.841 89.6916C206.249 86.8443 210.505 85.3366 215.873 85.3366V77.3366ZM197.691 83.5702C192.9 87.6291 189.39 93.0628 187.059 99.6763L194.604 102.335C196.548 96.8178 199.335 92.6626 202.862 89.6741L197.691 83.5702ZM187.048 99.7084C184.799 106.268 183.712 113.621 183.712 121.714H191.712C191.712 114.327 192.705 107.875 194.615 102.303L187.048 99.7084ZM183.712 121.714C183.712 129.808 184.799 137.161 187.048 143.721L194.615 141.126C192.705 135.554 191.712 129.102 191.712 121.714H183.712ZM187.059 143.753C189.39 150.366 192.9 155.8 197.691 159.859L202.862 153.755C199.335 150.766 196.548 146.611 194.604 141.094L187.059 143.753ZM197.736 159.897C202.763 164.029 208.895 166.006 215.873 166.006V158.006C210.489 158.006 206.223 156.517 202.816 153.717L197.736 159.897ZM305.207 188H301.207V192H305.207V188ZM305.207 54.9091V50.9091H301.207V54.9091H305.207ZM340.992 54.9091H344.992V50.9091H340.992V54.9091ZM340.992 78.1307H336.992V82.1307H340.992V78.1307ZM342.379 78.1307V82.1307H345.373L346.216 79.2579L342.379 78.1307ZM354.596 59.4148L356.97 62.6342L356.98 62.6265L356.991 62.6187L354.596 59.4148ZM380.33 53.3494L380.76 49.3726L380.76 49.3726L380.33 53.3494ZM385.962 54.3025H389.962V51.1794L386.932 50.422L385.962 54.3025ZM385.962 87.0554L384.813 90.8867L389.962 92.4315V87.0554H385.962ZM355.809 88.6151L357.731 92.123L357.739 92.1185L357.748 92.1139L355.809 88.6151ZM345.758 98.3196L342.324 96.2686L342.313 96.2863L342.303 96.3041L345.758 98.3196ZM342.119 188V192H346.119V188H342.119ZM309.207 188V54.9091H301.207V188H309.207ZM305.207 58.9091H340.992V50.9091H305.207V58.9091ZM336.992 54.9091V78.1307H344.992V54.9091H336.992ZM340.992 82.1307H342.379V74.1307H340.992V82.1307ZM346.216 79.2579C348.45 71.6538 352.093 66.2299 356.97 62.6342L352.222 56.1954C345.661 61.0334 341.16 68.0867 338.541 77.0035L346.216 79.2579ZM356.991 62.6187C361.986 58.8845 367.723 57.0028 374.352 57.0028V49.0028C366.077 49.0028 358.643 51.3958 352.201 56.2109L356.991 62.6187ZM374.352 57.0028C376.036 57.0028 377.883 57.1082 379.9 57.3263L380.76 49.3726C378.502 49.1285 376.365 49.0028 374.352 49.0028V57.0028ZM379.9 57.3263C381.905 57.5429 383.595 57.8337 384.992 58.1831L386.932 50.422C385.095 49.9627 383.03 49.618 380.76 49.3726L379.9 57.3263ZM381.962 54.3025V87.0554H389.962V54.3025H381.962ZM387.112 83.2241C385.081 82.6148 382.442 82.1192 379.294 81.7035L378.247 89.6346C381.222 90.0276 383.378 90.4562 384.813 90.8867L387.112 83.2241ZM379.294 81.7035C376.095 81.2809 373.115 81.0625 370.366 81.0625V89.0625C372.7 89.0625 375.323 89.2485 378.247 89.6346L379.294 81.7035ZM370.366 81.0625C364.335 81.0625 358.802 82.3838 353.87 85.1162L357.748 92.1139C361.365 90.1096 365.537 89.0625 370.366 89.0625V81.0625ZM353.887 85.1072C349.04 87.7628 345.17 91.5027 342.324 96.2686L349.192 100.371C351.313 96.8183 354.144 94.0885 357.731 92.123L353.887 85.1072ZM342.303 96.3041C339.476 101.15 338.119 106.657 338.119 112.703H346.119C346.119 107.889 347.187 103.807 349.213 100.335L342.303 96.3041ZM338.119 112.703V188H346.119V112.703H338.119ZM342.119 184H305.207V192H342.119V184ZM482.51 54.9091H486.51V50.9091H482.51V54.9091ZM482.51 82.6364V86.6364H486.51V82.6364H482.51ZM402.36 82.6364H398.36V86.6364H402.36V82.6364ZM402.36 54.9091V50.9091H398.36V54.9091H402.36ZM420.556 23.0227V19.0227H416.556V23.0227H420.556ZM457.468 23.0227H461.468V19.0227H457.468V23.0227ZM459.028 155.074L455.516 156.989L455.529 157.012L455.542 157.035L459.028 155.074ZM463.36 158.973L461.855 162.679L461.875 162.687L461.894 162.695L463.36 158.973ZM475.145 159.666L475.802 163.612L475.866 163.601L475.929 163.589L475.145 159.666ZM479.13 158.886L483.044 158.059L482.235 154.234L478.393 154.955L479.13 158.886ZM484.936 186.354L486.129 190.172L489.602 189.086L488.849 185.527L484.936 186.354ZM477.137 188.347L476.263 184.443L476.231 184.451L476.199 184.458L477.137 188.347ZM464.92 189.82L464.776 185.822L464.764 185.823L464.92 189.82ZM441.525 186.267L440.012 189.97L440.023 189.974L441.525 186.267ZM426.015 173.616L429.374 171.445L429.374 171.445L426.015 173.616ZM420.556 151.955L424.556 151.981L424.556 151.968V151.955H420.556ZM478.51 54.9091V82.6364H486.51V54.9091H478.51ZM482.51 78.6364H402.36V86.6364H482.51V78.6364ZM406.36 82.6364V54.9091H398.36V82.6364H406.36ZM402.36 58.9091H482.51V50.9091H402.36V58.9091ZM420.556 27.0227H457.468V19.0227H420.556V27.0227ZM453.468 23.0227V147.102H461.468V23.0227H453.468ZM453.468 147.102C453.468 150.835 454.024 154.253 455.516 156.989L462.54 153.158C461.953 152.082 461.468 150.186 461.468 147.102H453.468ZM455.542 157.035C456.995 159.619 459.113 161.565 461.855 162.679L464.866 155.267C463.911 154.879 463.14 154.226 462.514 153.113L455.542 157.035ZM461.894 162.695C464.355 163.664 467.064 164.099 469.946 164.099V156.099C467.86 156.099 466.178 155.784 464.827 155.251L461.894 162.695ZM469.946 164.099C471.902 164.099 473.855 163.936 475.802 163.612L474.487 155.721C472.968 155.974 471.455 156.099 469.946 156.099V164.099ZM475.929 163.589C477.657 163.243 478.967 162.987 479.867 162.818L478.393 154.955C477.445 155.133 476.098 155.396 474.36 155.744L475.929 163.589ZM475.217 159.714L481.022 187.181L488.849 185.527L483.044 158.059L475.217 159.714ZM483.743 182.536C482.049 183.065 479.574 183.701 476.263 184.443L478.012 192.25C481.402 191.49 484.125 190.798 486.129 190.172L483.743 182.536ZM476.199 184.458C473.188 185.185 469.398 185.655 464.776 185.822L465.065 193.817C470.031 193.637 474.386 193.126 478.076 192.235L476.199 184.458ZM464.764 185.823C456.308 186.152 449.095 185.018 443.027 182.56L440.023 189.974C447.357 192.946 455.741 194.18 465.076 193.817L464.764 185.823ZM443.038 182.564C437.11 180.141 432.603 176.438 429.374 171.445L422.656 175.788C426.822 182.232 432.655 186.963 440.012 189.97L443.038 182.564ZM429.374 171.445C426.205 166.542 424.502 160.141 424.556 151.981L416.557 151.928C416.495 161.213 418.432 169.253 422.656 175.788L429.374 171.445ZM424.556 151.955V23.0227H416.556V151.955H424.556ZM578.125 54.9091H582.125V50.9091H578.125V54.9091ZM578.125 82.6364V86.6364H582.125V82.6364H578.125ZM495.983 82.6364H491.983V86.6364H495.983V82.6364ZM495.983 54.9091V50.9091H491.983V54.9091H495.983ZM514.786 188H510.786V192H514.786V188ZM520.418 21.2898L516.988 19.2318L516.981 19.2433L516.974 19.2548L520.418 21.2898ZM536.015 6.99289L534.276 3.39025L534.276 3.39025L536.015 6.99289ZM573.966 3.52699L573.238 7.46012L573.247 7.4617L573.966 3.52699ZM584.537 5.86647L588.429 6.79076L589.301 3.11946L585.687 2.03517L584.537 5.86647ZM577.952 33.5938L576.733 37.4034L580.846 38.7196L581.844 34.518L577.952 33.5938ZM572.58 32.294L571.816 36.2205L571.826 36.2224L571.836 36.2243L572.58 32.294ZM554.817 35.5L557.849 38.109L557.864 38.0918L557.879 38.0744L554.817 35.5ZM551.611 188V192H555.611V188H551.611ZM574.125 54.9091V82.6364H582.125V54.9091H574.125ZM578.125 78.6364H495.983V86.6364H578.125V78.6364ZM499.983 82.6364V54.9091H491.983V82.6364H499.983ZM495.983 58.9091H578.125V50.9091H495.983V58.9091ZM518.786 188V45.2912H510.786V188H518.786ZM518.786 45.2912C518.786 36.1459 520.567 28.901 523.862 23.3247L516.974 19.2548C512.76 26.3869 510.786 35.1429 510.786 45.2912H518.786ZM523.848 23.3477C527.265 17.6528 531.88 13.4289 537.753 10.5955L534.276 3.39025C526.979 6.91108 521.196 12.2184 516.988 19.2318L523.848 23.3477ZM537.753 10.5955C543.722 7.71559 550.595 6.22726 558.456 6.22726V-1.77274C549.566 -1.77274 541.478 -0.083988 534.276 3.39025L537.753 10.5955ZM558.456 6.22726C563.917 6.22726 568.839 6.64554 573.238 7.46011L574.695 -0.40614C569.735 -1.32453 564.317 -1.77274 558.456 -1.77274V6.22726ZM573.247 7.4617C577.951 8.32226 581.297 9.07049 583.388 9.69778L585.687 2.03517C583.156 1.27609 579.455 0.464664 574.686 -0.407723L573.247 7.4617ZM580.646 4.94219L574.06 32.6695L581.844 34.518L588.429 6.79076L580.646 4.94219ZM579.171 29.7841C577.52 29.2558 575.559 28.7867 573.323 28.3637L571.836 36.2243C573.876 36.6101 575.496 37.0075 576.733 37.4034L579.171 29.7841ZM573.343 28.3676C571.003 27.9126 568.61 27.6875 566.168 27.6875V35.6875C568.116 35.6875 569.997 35.8668 571.816 36.2205L573.343 28.3676ZM566.168 27.6875C560.292 27.6875 555.025 29.0383 551.756 32.9256L557.879 38.0744C558.884 36.8784 561.184 35.6875 566.168 35.6875V27.6875ZM551.785 32.891C548.823 36.333 547.611 40.8801 547.611 45.9844H555.611C555.611 42.0773 556.536 39.6348 557.849 38.109L551.785 32.891ZM547.611 45.9844V188H555.611V45.9844H547.611ZM551.611 184H514.786V192H551.611V184ZM621.124 182.021L619.087 185.464L619.099 185.471L619.111 185.478L621.124 182.021ZM598.509 157.933L594.952 159.762L594.956 159.77L598.509 157.933ZM598.509 85.929L602.063 87.7656L602.067 87.7575L598.509 85.929ZM621.124 61.8409L623.146 65.2923L623.152 65.2886L621.124 61.8409ZM690.876 61.8409L688.839 65.2834L688.851 65.2905L688.863 65.2975L690.876 61.8409ZM713.577 85.929L710.02 87.7575L710.024 87.7656L713.577 85.929ZM713.577 157.933L717.131 159.77L717.135 159.762L713.577 157.933ZM690.876 182.021L692.898 185.473L692.904 185.469L690.876 182.021ZM671.553 156.807L674.135 159.862L674.148 159.851L674.16 159.841L671.553 156.807ZM680.825 142.423L677.052 141.094L677.046 141.11L677.041 141.126L680.825 142.423ZM680.825 101.006L677.041 102.303L677.046 102.319L677.052 102.335L680.825 101.006ZM640.62 86.6222L638.055 83.5527L638.045 83.5614L638.034 83.5702L640.62 86.6222ZM631.175 101.006L627.403 99.6763L627.397 99.6923L627.392 99.7084L631.175 101.006ZM631.175 142.423L627.392 143.721L627.397 143.737L627.403 143.753L631.175 142.423ZM640.62 156.807L638.034 159.859L638.057 159.878L638.08 159.897L640.62 156.807ZM656.043 186.599C643.16 186.599 632.242 183.867 623.137 178.565L619.111 185.478C629.647 191.613 642.008 194.599 656.043 194.599V186.599ZM623.161 178.579C614.059 173.193 607.04 165.726 602.063 156.097L594.956 159.77C600.608 170.705 608.665 179.297 619.087 185.464L623.161 178.579ZM602.067 156.105C597.089 146.421 594.538 135.081 594.538 121.974H586.538C586.538 136.133 589.3 148.766 594.952 159.762L602.067 156.105ZM594.538 121.974C594.538 108.746 597.092 97.3827 602.063 87.7656L594.956 84.0924C589.298 95.0397 586.538 107.707 586.538 121.974H594.538ZM602.067 87.7575C607.044 78.0737 614.058 70.6159 623.146 65.2923L619.102 58.3895C608.666 64.5034 600.603 73.1043 594.952 84.1005L602.067 87.7575ZM623.152 65.2886C632.254 59.9345 643.167 57.1761 656.043 57.1761V49.1761C642.001 49.1761 629.634 52.1943 619.096 58.3932L623.152 65.2886ZM656.043 57.1761C668.921 57.1761 679.8 59.9348 688.839 65.2834L692.913 58.3984C682.427 52.194 670.085 49.1761 656.043 49.1761V57.1761ZM688.863 65.2975C698.007 70.6228 705.046 78.0799 710.02 87.7575L717.135 84.1005C711.48 73.0981 703.384 64.4965 692.889 58.3843L688.863 65.2975ZM710.024 87.7656C714.995 97.3827 717.549 108.746 717.549 121.974H725.549C725.549 107.707 722.789 95.0397 717.131 84.0924L710.024 87.7656ZM717.549 121.974C717.549 135.081 714.997 146.421 710.02 156.105L717.135 159.762C722.786 148.766 725.549 136.133 725.549 121.974H717.549ZM710.024 156.097C705.05 165.72 698.007 173.186 688.848 178.574L692.904 185.469C703.385 179.304 711.476 170.711 717.131 159.77L710.024 156.097ZM688.854 178.57C679.812 183.867 668.927 186.599 656.043 186.599V194.599C670.078 194.599 682.415 191.613 692.898 185.473L688.854 178.57ZM656.217 166.006C663.144 166.006 669.211 164.023 674.135 159.862L668.971 153.752C665.693 156.522 661.535 158.006 656.217 158.006V166.006ZM674.16 159.841C678.894 155.774 682.341 150.333 684.608 143.721L677.041 141.126C675.149 146.644 672.415 150.793 668.947 153.773L674.16 159.841ZM684.597 143.753C686.912 137.183 688.031 129.818 688.031 121.714H680.031C680.031 129.092 679.012 135.533 677.052 141.094L684.597 143.753ZM688.031 121.714C688.031 113.611 686.912 106.246 684.597 99.6763L677.052 102.335C679.012 107.896 680.031 114.337 680.031 121.714H688.031ZM684.608 99.7084C682.341 93.0956 678.894 87.6553 674.16 83.5881L668.947 89.6562C672.415 92.6363 675.149 96.7851 677.041 102.303L684.608 99.7084ZM674.16 83.5881C669.237 79.3586 663.161 77.3366 656.217 77.3366V85.3366C661.518 85.3366 665.667 86.8384 668.947 89.6562L674.16 83.5881ZM656.217 77.3366C649.223 77.3366 643.081 79.3526 638.055 83.5527L643.185 89.6916C646.592 86.8443 650.849 85.3366 656.217 85.3366V77.3366ZM638.034 83.5702C633.244 87.6291 629.733 93.0628 627.403 99.6763L634.948 102.335C636.892 96.8178 639.678 92.6626 643.206 89.6741L638.034 83.5702ZM627.392 99.7084C625.143 106.268 624.056 113.621 624.056 121.714H632.056C632.056 114.327 633.049 107.875 634.959 102.303L627.392 99.7084ZM624.056 121.714C624.056 129.808 625.143 137.161 627.392 143.721L634.959 141.126C633.049 135.554 632.056 129.102 632.056 121.714H624.056ZM627.403 143.753C629.733 150.366 633.244 155.8 638.034 159.859L643.206 153.755C639.678 150.766 636.892 146.611 634.948 141.094L627.403 143.753ZM638.08 159.897C643.107 164.029 649.239 166.006 656.217 166.006V158.006C650.832 158.006 646.567 156.517 643.16 153.717L638.08 159.897ZM782.462 10.5454H786.462V6.54545H782.462V10.5454ZM782.462 188V192H786.462V188H782.462ZM745.55 188H741.55V192H745.55V188ZM745.55 10.5454V6.54545H741.55V10.5454H745.55ZM778.462 10.5454V188H786.462V10.5454H778.462ZM782.462 184H745.55V192H782.462V184ZM749.55 188V10.5454H741.55V188H749.55ZM745.55 14.5454H782.462V6.54545H745.55V14.5454ZM812.031 188H808.031V192H812.031V188ZM812.031 54.9091V50.9091H808.031V54.9091H812.031ZM848.943 54.9091H852.943V50.9091H848.943V54.9091ZM848.943 188V192H852.943V188H848.943ZM816.45 32.294L813.687 35.1865L813.709 35.2075L813.731 35.2283L816.45 32.294ZM816.45 5.95312L819.19 8.8672L819.191 8.86592L816.45 5.95312ZM844.61 5.95312L841.848 8.84556L841.87 8.86664L841.892 8.88737L844.61 5.95312ZM844.61 32.294L847.351 35.2081L847.352 35.2068L844.61 32.294ZM816.031 188V54.9091H808.031V188H816.031ZM812.031 58.9091H848.943V50.9091H812.031V58.9091ZM844.943 54.9091V188H852.943V54.9091H844.943ZM848.943 184H812.031V192H848.943V184ZM830.574 33.7528C826.066 33.7528 822.337 32.2953 819.168 29.3598L813.731 35.2283C818.419 39.5712 824.105 41.7528 830.574 41.7528V33.7528ZM819.213 29.4016C816.096 26.4245 814.645 23.036 814.645 19.0369H806.645C806.645 25.3201 809.063 30.7696 813.687 35.1865L819.213 29.4016ZM814.645 19.0369C814.645 15.1119 816.083 11.7888 819.19 8.8672L813.71 3.03905C809.076 7.39586 806.645 12.7953 806.645 19.0369H814.645ZM819.191 8.86592C822.363 5.88064 826.085 4.40766 830.574 4.40766V-3.59234C824.087 -3.59234 818.393 -1.36834 813.708 3.04033L819.191 8.86592ZM830.574 4.40766C835.061 4.40766 838.742 5.87922 841.848 8.84556L847.373 3.06069C842.738 -1.36692 837.061 -3.59234 830.574 -3.59234V4.40766ZM841.892 8.88737C845.052 11.8151 846.502 15.1327 846.502 19.0369H854.502C854.502 12.7745 852.025 7.36958 847.329 3.01888L841.892 8.88737ZM846.502 19.0369C846.502 23.0155 845.038 26.3983 841.869 29.3812L847.352 35.2068C852.039 30.7958 854.502 25.3405 854.502 19.0369H846.502ZM841.87 29.3799C838.769 32.2965 835.08 33.7528 830.574 33.7528V41.7528C837.042 41.7528 842.712 39.5699 847.351 35.2081L841.87 29.3799ZM903.726 182.021L901.689 185.464L901.701 185.471L901.713 185.478L903.726 182.021ZM881.111 157.933L877.553 159.762L877.557 159.77L881.111 157.933ZM881.111 85.929L884.664 87.7656L884.668 87.7575L881.111 85.929ZM903.726 61.8409L905.748 65.2923L905.754 65.2886L903.726 61.8409ZM973.477 61.8409L971.44 65.2834L971.452 65.2905L971.464 65.2975L973.477 61.8409ZM996.179 85.929L992.621 87.7575L992.626 87.7656L996.179 85.929ZM996.179 157.933L999.732 159.77L999.737 159.762L996.179 157.933ZM973.477 182.021L975.499 185.473L975.505 185.469L973.477 182.021ZM954.155 156.807L956.737 159.862L956.749 159.851L956.762 159.841L954.155 156.807ZM963.426 142.423L959.654 141.094L959.648 141.11L959.642 141.126L963.426 142.423ZM963.426 101.006L959.642 102.303L959.648 102.319L959.654 102.335L963.426 101.006ZM923.222 86.6222L920.657 83.5527L920.646 83.5614L920.636 83.5702L923.222 86.6222ZM913.777 101.006L910.004 99.6763L909.999 99.6923L909.993 99.7084L913.777 101.006ZM913.777 142.423L909.993 143.721L909.999 143.737L910.004 143.753L913.777 142.423ZM923.222 156.807L920.636 159.859L920.659 159.878L920.682 159.897L923.222 156.807ZM938.645 186.599C925.762 186.599 914.844 183.867 905.739 178.565L901.713 185.478C912.248 191.613 924.61 194.599 938.645 194.599V186.599ZM905.763 178.579C896.66 173.193 889.641 165.726 884.664 156.097L877.557 159.77C883.209 170.705 891.267 179.297 901.689 185.464L905.763 178.579ZM884.668 156.105C879.691 146.421 877.139 135.081 877.139 121.974H869.139C869.139 136.133 871.902 148.766 877.553 159.762L884.668 156.105ZM877.139 121.974C877.139 108.746 879.694 97.3827 884.664 87.7656L877.557 84.0924C871.899 95.0397 869.139 107.707 869.139 121.974H877.139ZM884.668 87.7575C889.646 78.0737 896.66 70.6159 905.748 65.2923L901.704 58.3895C891.267 64.5034 883.205 73.1043 877.553 84.1005L884.668 87.7575ZM905.754 65.2886C914.856 59.9345 925.768 57.1761 938.645 57.1761V49.1761C924.603 49.1761 912.236 52.1943 901.698 58.3932L905.754 65.2886ZM938.645 57.1761C951.522 57.1761 962.401 59.9348 971.44 65.2834L975.514 58.3984C965.029 52.194 952.686 49.1761 938.645 49.1761V57.1761ZM971.464 65.2975C980.609 70.6228 987.647 78.0799 992.621 87.7575L999.737 84.1005C994.082 73.0981 985.986 64.4965 975.49 58.3843L971.464 65.2975ZM992.626 87.7656C997.596 97.3827 1000.15 108.746 1000.15 121.974H1008.15C1008.15 107.707 1005.39 95.0397 999.732 84.0924L992.626 87.7656ZM1000.15 121.974C1000.15 135.081 997.599 146.421 992.621 156.105L999.737 159.762C1005.39 148.766 1008.15 136.133 1008.15 121.974H1000.15ZM992.626 156.097C987.652 165.72 980.608 173.186 971.449 178.574L975.505 185.469C985.986 179.304 994.077 170.711 999.732 159.77L992.626 156.097ZM971.455 178.57C962.414 183.867 951.529 186.599 938.645 186.599V194.599C952.679 194.599 965.016 191.613 975.499 185.473L971.455 178.57ZM938.818 166.006C945.746 166.006 951.813 164.023 956.737 159.862L951.573 153.752C948.294 156.522 944.137 158.006 938.818 158.006V166.006ZM956.762 159.841C961.495 155.774 964.943 150.333 967.21 143.721L959.642 141.126C957.751 146.644 955.017 150.793 951.548 153.773L956.762 159.841ZM967.199 143.753C969.514 137.183 970.632 129.818 970.632 121.714H962.632C962.632 129.092 961.613 135.533 959.654 141.094L967.199 143.753ZM970.632 121.714C970.632 113.611 969.514 106.246 967.199 99.6763L959.654 102.335C961.613 107.896 962.632 114.337 962.632 121.714H970.632ZM967.21 99.7084C964.943 93.0956 961.495 87.6553 956.762 83.5881L951.548 89.6562C955.017 92.6363 957.751 96.7851 959.642 102.303L967.21 99.7084ZM956.762 83.5881C951.839 79.3586 945.763 77.3366 938.818 77.3366V85.3366C944.12 85.3366 948.268 86.8384 951.548 89.6562L956.762 83.5881ZM938.818 77.3366C931.824 77.3366 925.683 79.3526 920.657 83.5527L925.786 89.6916C929.194 86.8443 933.451 85.3366 938.818 85.3366V77.3366ZM920.636 83.5702C915.845 87.6291 912.335 93.0628 910.004 99.6763L917.55 102.335C919.494 96.8178 922.28 92.6626 925.807 89.6741L920.636 83.5702ZM909.993 99.7084C907.744 106.268 906.658 113.621 906.658 121.714H914.658C914.658 114.327 915.651 107.875 917.561 102.303L909.993 99.7084ZM906.658 121.714C906.658 129.808 907.744 137.161 909.993 143.721L917.561 141.126C915.651 135.554 914.658 129.102 914.658 121.714H906.658ZM910.004 143.753C912.335 150.366 915.845 155.8 920.636 159.859L925.807 153.755C922.28 150.766 919.494 146.611 917.55 141.094L910.004 143.753ZM920.682 159.897C925.709 164.029 931.841 166.006 938.818 166.006V158.006C933.434 158.006 929.168 156.517 925.761 153.717L920.682 159.897Z" fill="black" mask="url(#path-1-outside-1_15_70)"/>
</g>
</svg>
