<svg width="48" height="75" viewBox="0 0 48 75" fill="none" xmlns="http://www.w3.org/2000/svg">
<g clip-path="url(#clip0_131_1435)">
<path d="M26.524 46.2696V5.78996L42.9608 21.7796C43.6557 22.4555 44.7841 22.4555 45.4789 21.7796C46.1737 21.1037 46.1737 20.006 45.4789 19.33L26.1294 0.506942C25.4345 -0.168981 24.3061 -0.168981 23.6113 0.506942L3.52251 20.0492C3.17788 20.3845 3 20.8279 3 21.2713C3 21.7147 3.17232 22.1581 3.52251 22.4934C4.21733 23.1693 5.34573 23.1693 6.04056 22.4934L22.9665 6.03329V46.2696C22.9665 47.2267 23.7614 48 24.7453 48C25.7291 48 26.524 47.2213 26.524 46.2696Z" fill="black"/>
<path d="M7.918 61.152H2.616C2.616 59.4507 3.386 58.6 4.926 58.6H16.168C16.168 60.3013 15.3907 61.152 13.836 61.152H10.866V72.02C10.866 72.724 10.6167 73.2667 10.118 73.648C9.61933 74.0147 8.886 74.198 7.918 74.198V61.152ZM23.0341 74.198C21.8314 74.198 20.7314 73.9633 19.7341 73.494C18.7367 73.01 17.9447 72.3573 17.3581 71.536C16.7861 70.7147 16.5001 69.82 16.5001 68.852V63.726C16.5001 62.758 16.7861 61.8707 17.3581 61.064C17.9447 60.2427 18.7367 59.5973 19.7341 59.128C20.7314 58.644 21.8314 58.402 23.0341 58.402C24.2367 58.402 25.3367 58.644 26.3341 59.128C27.3461 59.5973 28.1381 60.2427 28.7101 61.064C29.2967 61.8707 29.5901 62.758 29.5901 63.726V68.852C29.5901 69.82 29.2967 70.7147 28.7101 71.536C28.1381 72.3573 27.3461 73.01 26.3341 73.494C25.3367 73.9633 24.2367 74.198 23.0341 74.198ZM23.0341 71.624C24.1341 71.624 25.0141 71.3673 25.6741 70.854C26.3341 70.326 26.6641 69.644 26.6641 68.808V63.792C26.6641 62.9413 26.3341 62.2593 25.6741 61.746C25.0141 61.218 24.1341 60.954 23.0341 60.954C21.9487 60.954 21.0761 61.218 20.4161 61.746C19.7561 62.2593 19.4261 62.9413 19.4261 63.792V68.808C19.4261 69.644 19.7561 70.326 20.4161 70.854C21.0761 71.3673 21.9487 71.624 23.0341 71.624ZM31.7218 59.942C31.7218 59.5607 31.8612 59.2453 32.1398 58.996C32.4185 58.732 32.7705 58.6 33.1958 58.6H39.3118C40.3678 58.6 41.2992 58.8127 42.1058 59.238C42.9272 59.6487 43.5578 60.2427 43.9978 61.02C44.4525 61.7827 44.6798 62.67 44.6798 63.682C44.6798 64.7087 44.4598 65.6107 44.0198 66.388C43.5798 67.1507 42.9565 67.7447 42.1498 68.17C41.3432 68.5807 40.3972 68.786 39.3118 68.786H34.6698V72.02C34.6698 72.724 34.4132 73.2667 33.8998 73.648C33.4012 74.0147 32.6752 74.198 31.7218 74.198V59.942ZM39.3118 66.234C40.0892 66.234 40.6905 66.0067 41.1158 65.552C41.5412 65.0973 41.7538 64.4667 41.7538 63.66C41.7538 62.868 41.5338 62.252 41.0938 61.812C40.6685 61.372 40.0745 61.152 39.3118 61.152H34.6698V66.234H39.3118Z" fill="black"/>
</g>
<defs>
<clipPath id="clip0_131_1435">
<rect width="48" height="75" fill="white"/>
</clipPath>
</defs>
</svg>
