<svg width="60" height="60" viewBox="0 0 60 60" fill="none" xmlns="http://www.w3.org/2000/svg">
<g clip-path="url(#clip0_128_1430)">
<path d="M21.815 46.4318V49.0863H17.402V59.9818H14.6613V49.0826H10.3683V46.4281H21.815V46.4318ZM43.9547 46.3568C46.2043 46.3568 49.8674 47.5754 49.7249 51.1072C49.5899 54.4816 46.448 55.4489 44.1796 55.5239H41.9413V59.9818H39.2868V46.3531H43.9584L43.9547 46.3568ZM29.891 46.3568C30.8191 46.3035 31.7482 46.4402 32.6216 46.7587C33.4949 47.0771 34.2941 47.5706 34.97 48.2087C35.6459 48.8469 36.1844 49.6164 36.5524 50.4701C36.9204 51.3237 37.1103 52.2435 37.1103 53.1731C37.1103 54.1027 36.9204 55.0225 36.5524 55.8761C36.1844 56.7298 35.6459 57.4992 34.97 58.1374C34.2941 58.7756 33.4949 59.269 32.6216 59.5875C31.7482 59.9059 30.8191 60.0427 29.891 59.9893C28.9763 60.0407 28.0608 59.9038 27.2012 59.5872C26.3415 59.2705 25.556 58.7808 24.8932 58.1484C24.2724 57.484 23.7918 56.7014 23.48 55.8473C23.1682 54.9931 23.0317 54.0849 23.0785 53.1768C23.0295 52.2657 23.165 51.3541 23.4769 50.4966C23.7887 49.6391 24.2704 48.8534 24.8932 48.1865C25.557 47.556 26.3429 47.068 27.2024 46.7527C28.0619 46.4374 28.9769 46.3014 29.891 46.3531V46.3568ZM29.891 49.0826C29.3376 49.0346 28.7801 49.1006 28.2533 49.2767C27.7264 49.4528 27.2412 49.7351 26.8278 50.1061C26.4589 50.5225 26.1781 51.0092 26.0022 51.5369C25.8263 52.0646 25.759 52.6224 25.8042 53.1768C25.7605 53.7294 25.8293 54.2851 26.0066 54.8104C26.1838 55.3356 26.4657 55.8194 26.8353 56.2325C27.2462 56.6055 27.7297 56.8896 28.2555 57.067C28.7813 57.2444 29.3381 57.3113 29.891 57.2636C30.4459 57.3079 31.0041 57.2393 31.5318 57.0621C32.0595 56.8849 32.5459 56.6027 32.9617 56.2325C33.3318 55.8185 33.6135 55.3333 33.7895 54.8065C33.9655 54.2798 34.0321 53.7227 33.9853 53.1693C34.0323 52.6148 33.9658 52.0565 33.7898 51.5285C33.6138 51.0006 33.332 50.514 32.9617 50.0986C32.5471 49.7282 32.0612 49.4464 31.5339 49.2703C31.0065 49.0943 30.4487 49.0279 29.8948 49.0751L29.891 49.0826ZM42.0125 49.0826V52.8057H43.8872C45.8218 52.8057 46.9691 52.1495 47.0104 50.9985C47.0516 49.9974 45.9193 49.2063 44.3371 49.1013H42.0163L42.0125 49.0826ZM28.2413 0.442706C28.3807 0.302704 28.5463 0.19161 28.7287 0.115805C28.9111 0.0399997 29.1067 0.000976562 29.3042 0.000976562C29.5018 0.000976562 29.6974 0.0399997 29.8798 0.115805C30.0622 0.19161 30.2278 0.302704 30.3672 0.442706L51.8957 21.9713C52.1023 22.1805 52.2428 22.4458 52.2998 22.7342C52.3568 23.0227 52.3278 23.3215 52.2163 23.5935C52.1049 23.8656 51.9159 24.0989 51.6729 24.2644C51.4299 24.43 51.1437 24.5204 50.8497 24.5246H40.5316C40.1338 24.5246 39.7524 24.6826 39.4711 24.9638C39.1898 25.2451 39.0318 25.6265 39.0318 26.0243V42.1051C39.0318 42.5029 38.8738 42.8843 38.5926 43.1656C38.3113 43.4468 37.9299 43.6048 37.5321 43.6048H21.4101C21.0123 43.6048 20.6308 43.4468 20.3496 43.1656C20.0683 42.8843 19.9103 42.5029 19.9103 42.1051V26.028C19.9103 25.6303 19.7523 25.2488 19.4711 24.9676C19.1898 24.6863 18.8084 24.5283 18.4106 24.5283H9.14604C8.84919 24.5308 8.55828 24.4451 8.31016 24.2821C8.06204 24.1192 7.86786 23.8862 7.75223 23.6128C7.6366 23.3394 7.60472 23.0378 7.66062 22.7462C7.71652 22.4547 7.85768 22.1863 8.06624 21.975L28.2413 0.442706Z" fill="#777777"/>
</g>
<defs>
<clipPath id="clip0_128_1430">
<rect width="60" height="60" fill="white"/>
</clipPath>
</defs>
</svg>
